<svg width="62" height="62" viewBox="0 0 62 62" fill="none" xmlns="http://www.w3.org/2000/svg">
<path opacity="0.2" d="M52.3125 31C52.3125 35.2152 51.0626 39.3358 48.7207 42.8406C46.3789 46.3454 43.0503 49.0771 39.156 50.6902C35.2616 52.3033 30.9764 52.7253 26.8421 51.903C22.7079 51.0806 18.9104 49.0508 15.9298 46.0702C12.9492 43.0896 10.9194 39.2921 10.097 35.1579C9.27468 31.0236 9.69673 26.7384 11.3098 22.8441C12.9229 18.9497 15.6546 15.6212 19.1594 13.2793C22.6642 10.9375 26.7848 9.6875 31 9.6875C36.6524 9.6875 42.0734 11.9329 46.0702 15.9298C50.0671 19.9267 52.3125 25.3476 52.3125 31Z" fill="white"/>
<path d="M59.5297 14.5313C58.1977 12.2305 54.6133 10.075 45.0469 12.4727C41.598 9.85775 37.4876 8.25744 33.1785 7.8519C28.8694 7.44636 24.5327 8.25168 20.6564 10.1772C16.7802 12.1027 13.5184 15.072 11.2382 18.7508C8.958 22.4296 7.74995 26.6719 7.75002 31C7.75683 31.971 7.81341 32.941 7.91955 33.9063C1.06565 40.9781 1.16252 45.168 2.47033 47.4688C3.36643 49.0188 5.35237 50.5688 9.68752 50.5688C11.7677 50.5291 13.8378 50.2693 15.8633 49.7938L16.9531 49.5274C20.4021 52.1423 24.5124 53.7426 28.8215 54.1481C33.1306 54.5537 37.4674 53.7483 41.3436 51.8228C45.2199 49.8973 48.4817 46.928 50.7618 43.2492C53.042 39.5704 54.2501 35.3282 54.25 31C54.2432 30.029 54.1866 29.059 54.0805 28.0938L54.8313 27.2945C60.9586 20.6344 60.7649 16.6867 59.5297 14.5313ZM31 11.625C35.4014 11.6317 39.67 13.1331 43.1065 15.8832C46.5429 18.6332 48.9435 22.4689 49.9149 26.7617C45.9914 30.4914 40.7602 34.318 34.875 37.7086C28.9899 41.0992 23.0805 43.7391 17.8977 45.2406C15.0218 42.6046 13.0099 39.1608 12.1258 35.3611C11.2417 31.5614 11.5267 27.5832 12.9434 23.9484C14.3602 20.3135 16.8425 17.1918 20.0648 14.9926C23.2871 12.7934 27.0988 11.6196 31 11.625ZM5.83674 45.5313C5.47346 44.9016 5.66721 43.7149 6.39377 42.2859C7.11551 40.9348 7.9846 39.6677 8.98518 38.5078C9.96676 41.3801 11.5058 44.0302 13.5141 46.3063C8.98518 47.1055 6.41799 46.5484 5.83674 45.5313V45.5313ZM31 50.375C27.7947 50.3751 24.6399 49.576 21.8211 48.05C26.568 46.4031 31.7024 44.0055 36.8125 41.075C41.6058 38.3306 46.1375 35.1527 50.3508 31.5813C50.1997 36.6142 48.0953 41.3907 44.4832 44.8988C40.8712 48.4069 36.0353 50.371 31 50.375ZM48.486 15.6938C50.001 15.3983 51.5449 15.2764 53.0875 15.3305C54.686 15.4274 55.8 15.8391 56.1633 16.4688C56.7446 17.4859 55.9453 19.9805 53.0149 23.4922C52.0333 20.6199 50.4942 17.9698 48.486 15.6938V15.6938Z" fill="white"/>
</svg>
